<svg width="204" height="205" viewBox="0 0 204 205" fill="none" xmlns="http://www.w3.org/2000/svg">
<path fill-rule="evenodd" clip-rule="evenodd" d="M154.705 106.062C139.823 122.068 124.555 137.801 109.092 153.263C107.269 154.775 105.332 155.588 103.317 155.588C101.457 155.588 99.5965 154.89 97.7775 153.533C81.4607 138.729 65.6089 123.344 50.1455 107.653C48.5964 105.793 47.8234 103.777 47.8234 101.8C47.8234 99.8987 48.5591 97.9249 49.9532 96.0649C64.9133 79.9814 80.2216 64.1342 95.9921 48.7864C97.8512 47.3149 99.8702 46.5015 101.96 46.5015C103.86 46.5015 105.838 47.2001 107.698 48.6314C123.468 63.6682 139.242 78.8207 154.628 94.3599C157.611 98.0798 157.652 102.302 154.705 106.062ZM193.459 105.519C192.22 103.777 191.677 101.955 191.677 100.095C191.677 98.2349 192.294 96.3346 193.573 94.5522C196.986 90.7958 200.318 86.9955 203.612 83.1607C202.1 74.8272 199.582 66.8849 196.132 59.4057C190.164 66.1491 184.041 72.7749 177.803 79.2858C176.136 80.6023 174.354 81.2605 172.727 81.2605C170.826 81.2605 169.044 80.4473 167.339 78.8983C152.767 62.8923 137.693 47.3923 122.152 32.3555C120.603 30.6515 119.867 28.8317 119.867 27.009C119.867 25.2639 120.562 23.5598 121.96 21.896C127.965 16.5456 134.05 11.2364 140.211 6.00475C133.429 3.254 126.26 1.27918 118.857 0.0774583C115.448 3.09802 112.076 6.15972 108.745 9.29893C106.844 10.5781 104.828 11.2364 102.813 11.2364C100.839 11.2364 98.8234 10.5782 97.0007 9.3392C93.2413 6.19999 89.4436 3.09806 85.646 0C77.4297 1.27922 69.5243 3.56398 62.0448 6.66301C67.935 11.7024 73.7477 16.7781 79.4858 21.896C80.8799 23.5598 81.5783 25.2639 81.5783 27.009C81.5783 28.8317 80.8389 30.6515 79.3309 32.3555C63.7901 47.3923 48.6739 62.8923 34.1426 78.8983C32.4384 80.4473 30.6158 81.2605 28.7557 81.2605C27.088 81.2605 25.3465 80.6023 23.6787 79.2858C18.022 73.3556 12.4417 67.3882 7.01364 61.3059C3.99292 68.2416 1.78169 75.5667 0.387591 83.198V83.2382C3.68291 87.073 7.01364 90.8331 10.3865 94.5522C11.7031 96.3346 12.324 98.2349 12.324 100.095C12.324 101.955 11.7432 103.777 10.5414 105.519C6.97719 109.822 3.48669 114.16 0 118.541V118.578C1.35678 127.3 3.83792 135.631 7.32461 143.457C12.9823 137.142 18.7578 130.942 24.6107 124.819C26.2746 123.5 28.0572 122.841 29.7239 122.841C31.584 122.841 33.3667 123.617 35.1119 125.204C49.6433 141.172 64.7181 156.672 80.2589 171.746C81.8081 173.45 82.5477 175.233 82.5477 177.096C82.5477 178.838 81.8482 180.542 80.454 182.21C74.6384 187.401 68.7109 192.556 62.7432 197.672C69.9902 200.656 77.6631 202.827 85.646 204.065C89.4436 201.004 93.2413 197.865 97.0007 194.726C98.8234 193.524 100.839 192.865 102.813 192.865C104.828 192.865 106.844 193.524 108.745 194.766C112.076 197.905 115.448 200.967 118.857 203.987C126.493 202.748 133.855 200.656 140.832 197.827C134.786 192.673 128.818 187.479 122.928 182.21C121.531 180.542 120.835 178.838 120.835 177.096C120.835 175.233 121.571 173.45 123.084 171.746C138.621 156.672 153.736 141.172 168.267 125.204C169.972 123.617 171.795 122.841 173.655 122.841C175.322 122.841 177.064 123.5 178.732 124.819C184.777 131.056 190.668 137.45 196.48 143.923C200.047 135.978 202.603 127.452 204 118.578C200.551 114.201 197.024 109.86 193.459 105.519Z" fill="white"/>
</svg>
